<svg width="32" height="32" viewBox="0 0 32 32" fill="none" xmlns="http://www.w3.org/2000/svg">
<path d="M16.0664 0.0712891C23.0879 0.0715137 28.784 5.7676 28.7842 12.7891C28.7842 22.464 16.103 31.9034 16.0664 31.9307C16.0664 31.9307 3.34766 22.4795 3.34766 12.7891C3.34786 5.76747 9.04476 0.0712891 16.0664 0.0712891Z" fill="#EB3D4D"/>
<rect x="8.10264" y="5.817" width="15.7943" height="15.7943" rx="7.89716" stroke="white" stroke-width="0.966999"/>
<g clip-path="url(#clip0_8442_77)">
<path d="M18.5561 11.5754L16.4494 11.7511L17.1291 9.46696C17.1465 9.40706 17.1369 9.34117 17.1003 9.28926C17.0637 9.23735 17.0059 9.2074 16.9462 9.2074H14.1828C14.0827 9.2074 13.9999 9.28726 13.9903 9.39109L13.6147 14.0293C13.6109 14.0872 13.6301 14.1471 13.6706 14.1871C13.711 14.229 13.7669 14.249 13.8246 14.245L15.6945 14.0673L15.3344 17.9767C15.3248 18.0726 15.3845 18.1604 15.473 18.1884C15.4904 18.1944 15.5096 18.1963 15.527 18.1963C15.5982 18.1963 15.6656 18.1564 15.6984 18.0865L18.7429 11.8649C18.7737 11.8011 18.7698 11.7232 18.7313 11.6633C18.6928 11.6034 18.6254 11.5694 18.5561 11.5754Z" fill="white"/>
</g>
<defs>
<clipPath id="clip0_8442_77">
<rect width="6.44666" height="9.02533" fill="white" transform="translate(12.7764 9.20154)"/>
</clipPath>
</defs>
</svg>
