<svg width="28" height="28" viewBox="0 0 28 28" fill="none" xmlns="http://www.w3.org/2000/svg">
<path fill-rule="evenodd" clip-rule="evenodd" d="M24.5 11.842V20.9613C24.5 23.56 22.4107 25.6666 19.8333 25.6666H8.16667C5.58934 25.6666 3.5 23.56 3.5 20.9613V11.842C3.5 10.4292 4.12959 9.09123 5.21484 8.19759L11.0482 3.39422C12.766 1.97968 15.234 1.97968 16.9518 3.39422L22.7852 8.19759C23.8704 9.09123 24.5 10.4292 24.5 11.842ZM11.6667 20.125C11.1834 20.125 10.7917 20.5167 10.7917 21C10.7917 21.4832 11.1834 21.875 11.6667 21.875H16.3333C16.8166 21.875 17.2083 21.4832 17.2083 21C17.2083 20.5167 16.8166 20.125 16.3333 20.125H11.6667Z" fill="#73C54F"/>
</svg>
