<svg width="28" height="28" viewBox="0 0 28 28" fill="none" xmlns="http://www.w3.org/2000/svg">
<path d="M4.65218 20.1025L5.57526 20.4872L4.65218 20.1025ZM3.67996 22.4359L4.60304 22.8205L3.67996 22.4359ZM24.321 22.4359L23.3979 22.8205L24.321 22.4359ZM23.3488 20.1025L24.2718 19.7179H24.2718L23.3488 20.1025ZM18.6671 17.6666C18.1149 17.6666 17.6671 18.1144 17.6671 18.6666C17.6671 19.2189 18.1149 19.6666 18.6671 19.6666V17.6666ZM9.33381 19.6666C9.88609 19.6666 10.3338 19.2189 10.3338 18.6666C10.3338 18.1144 9.88609 17.6666 9.33381 17.6666V19.6666ZM22.1671 10.6296H21.1671C21.1671 12.5957 20.0443 14.9686 18.4595 16.8983C17.6793 17.8483 16.8236 18.6448 16.0087 19.1953C15.1723 19.7604 14.4783 20 14.0005 20V21V22C15.0539 22 16.1463 21.516 17.1283 20.8526C18.1318 20.1746 19.1264 19.2376 20.005 18.1677C21.7379 16.0577 23.1671 13.2455 23.1671 10.6296H22.1671ZM14.0005 21V20C13.5226 20 12.8286 19.7604 11.9923 19.1953C11.1774 18.6448 10.3217 17.8483 9.54149 16.8983C7.95666 14.9686 6.83381 12.5957 6.83381 10.6296H5.83381H4.83381C4.83381 13.2455 6.26304 16.0577 7.99592 18.1677C8.87458 19.2376 9.86916 20.1746 10.8726 20.8526C11.8546 21.516 12.9471 22 14.0005 22V21ZM5.83381 10.6296H6.83381C6.83381 6.58507 10.0572 3.33331 14.0005 3.33331V2.33331V1.33331C8.92307 1.33331 4.83381 5.51031 4.83381 10.6296H5.83381ZM14.0005 2.33331V3.33331C17.9437 3.33331 21.1671 6.58507 21.1671 10.6296H22.1671H23.1671C23.1671 5.51031 19.0779 1.33331 14.0005 1.33331V2.33331ZM16.9171 10.5H15.9171C15.9171 11.5585 15.059 12.4166 14.0005 12.4166V13.4166V14.4166C16.1636 14.4166 17.9171 12.6631 17.9171 10.5H16.9171ZM14.0005 13.4166V12.4166C12.9419 12.4166 12.0838 11.5585 12.0838 10.5H11.0838H10.0838C10.0838 12.6631 11.8374 14.4166 14.0005 14.4166V13.4166ZM11.0838 10.5H12.0838C12.0838 9.44143 12.9419 8.58331 14.0005 8.58331V7.58331V6.58331C11.8374 6.58331 10.0838 8.33686 10.0838 10.5H11.0838ZM14.0005 7.58331V8.58331C15.059 8.58331 15.9171 9.44143 15.9171 10.5H16.9171H17.9171C17.9171 8.33686 16.1636 6.58331 14.0005 6.58331V7.58331ZM4.65218 20.1025L3.72911 19.7179L2.75688 22.0513L3.67996 22.4359L4.60304 22.8205L5.57526 20.4872L4.65218 20.1025ZM5.83381 25.6666V26.6666H22.1671V25.6666V24.6666H5.83381V25.6666ZM24.321 22.4359L25.2441 22.0513L24.2718 19.7179L23.3488 20.1025L22.4257 20.4872L23.3979 22.8205L24.321 22.4359ZM21.1949 18.6666V17.6666H18.6671V18.6666V19.6666H21.1949V18.6666ZM6.80603 18.6666V19.6666H9.33381V18.6666V17.6666H6.80603V18.6666ZM23.3488 20.1025L24.2718 19.7179C23.7543 18.4758 22.5406 17.6666 21.1949 17.6666V18.6666V19.6666C21.7332 19.6666 22.2187 19.9903 22.4257 20.4872L23.3488 20.1025ZM22.1671 25.6666V26.6666C24.5457 26.6666 26.1589 24.2469 25.2441 22.0513L24.321 22.4359L23.3979 22.8205C23.7638 23.6987 23.1186 24.6666 22.1671 24.6666V25.6666ZM3.67996 22.4359L2.75688 22.0513C1.84204 24.2469 3.45521 26.6666 5.83381 26.6666V25.6666V24.6666C4.88237 24.6666 4.2371 23.6987 4.60304 22.8205L3.67996 22.4359ZM4.65218 20.1025L5.57526 20.4872C5.78228 19.9903 6.26776 19.6666 6.80603 19.6666V18.6666V17.6666C5.46036 17.6666 4.24667 18.4758 3.72911 19.7179L4.65218 20.1025Z" fill="#28303F"/>
</svg>
