<svg width="28" height="28" viewBox="0 0 28 28" fill="none" xmlns="http://www.w3.org/2000/svg">
<path fill-rule="evenodd" clip-rule="evenodd" d="M13.6375 26.4628L13.644 26.4659C13.8703 26.5664 14.1291 26.5667 14.3554 26.4662L14.3597 26.4642C14.3862 26.4521 14.4514 26.4222 14.4903 26.4039C14.5732 26.365 14.6923 26.3078 14.8425 26.2328C15.1426 26.0826 15.5678 25.8606 16.0763 25.5687C17.0912 24.986 18.4485 24.1194 19.8101 22.9847C22.5041 20.7396 25.375 17.3084 25.375 12.8333C25.375 6.55101 20.2823 1.45825 14 1.45825C7.71776 1.45825 2.625 6.55101 2.625 12.8333C2.625 17.3084 5.4959 20.7396 8.18984 22.9847C9.55153 24.1194 10.9088 24.986 11.9237 25.5687C12.4322 25.8606 12.8574 26.0826 13.1575 26.2328C13.304 26.3059 13.5485 26.421 13.6375 26.4628ZM14 8.16658C11.4227 8.16658 9.33333 10.2559 9.33333 12.8333C9.33333 15.4105 11.4227 17.4999 14 17.4999C16.5773 17.4999 18.6667 15.4105 18.6667 12.8333C18.6667 10.2559 16.5773 8.16658 14 8.16658Z" fill="#73C54F"/>
</svg>
