<svg width="28" height="28" viewBox="0 0 28 28" fill="none" xmlns="http://www.w3.org/2000/svg">
<path d="M15.6449 14.0001L20.6616 8.99513C20.8813 8.77545 21.0047 8.47749 21.0047 8.1668C21.0047 7.85612 20.8813 7.55816 20.6616 7.33847C20.4419 7.11878 20.1439 6.99536 19.8333 6.99536C19.5226 6.99536 19.2246 7.11878 19.0049 7.33847L13.9999 12.3551L8.99493 7.33847C8.77524 7.11878 8.47728 6.99536 8.1666 6.99536C7.85591 6.99536 7.55795 7.11878 7.33826 7.33847C7.11857 7.55816 6.99516 7.85612 6.99516 8.1668C6.99516 8.47749 7.11857 8.77545 7.33826 8.99513L12.3549 14.0001L7.33826 19.0051C7.22891 19.1136 7.14212 19.2426 7.08289 19.3848C7.02366 19.527 6.99316 19.6795 6.99316 19.8335C6.99316 19.9875 7.02366 20.14 7.08289 20.2821C7.14212 20.4243 7.22891 20.5533 7.33826 20.6618C7.44672 20.7711 7.57575 20.8579 7.71792 20.9172C7.86009 20.9764 8.01258 21.0069 8.1666 21.0069C8.32061 21.0069 8.4731 20.9764 8.61527 20.9172C8.75744 20.8579 8.88647 20.7711 8.99493 20.6618L13.9999 15.6451L19.0049 20.6618C19.1134 20.7711 19.2424 20.8579 19.3846 20.9172C19.5268 20.9764 19.6792 21.0069 19.8333 21.0069C19.9873 21.0069 20.1398 20.9764 20.2819 20.9172C20.4241 20.8579 20.5531 20.7711 20.6616 20.6618C20.7709 20.5533 20.8577 20.4243 20.917 20.2821C20.9762 20.14 21.0067 19.9875 21.0067 19.8335C21.0067 19.6795 20.9762 19.527 20.917 19.3848C20.8577 19.2426 20.7709 19.1136 20.6616 19.0051L15.6449 14.0001Z" fill="white"/>
</svg>
