<svg width="15" height="18" viewBox="0 0 15 18" fill="none" xmlns="http://www.w3.org/2000/svg">
<path fill-rule="evenodd" clip-rule="evenodd" d="M11.1024 7.49964C10.7574 7.49964 10.4774 7.21964 10.4774 6.87464V5.08548C10.4774 3.33881 9.05658 1.91798 7.30992 1.91798H7.29658C6.45242 1.91798 5.66158 2.24298 5.06408 2.83548C4.46242 3.43048 4.12992 4.22464 4.12658 5.07131V6.87464C4.12658 7.21964 3.84658 7.49964 3.50158 7.49964C3.15658 7.49964 2.87658 7.21964 2.87658 6.87464V5.08548C2.88158 3.88548 3.34575 2.77798 4.18325 1.94798C5.02158 1.11714 6.12825 0.63631 7.31242 0.667976C9.74575 0.667976 11.7274 2.64964 11.7274 5.08548V6.87464C11.7274 7.21964 11.4474 7.49964 11.1024 7.49964Z" fill="white"/>
<path fill-rule="evenodd" clip-rule="evenodd" d="M4.11833 7.44043C2.72 7.44043 1.58333 8.5771 1.58333 9.97543V13.5496C1.58333 14.9479 2.72 16.0846 4.11833 16.0846H10.4858C11.8833 16.0846 13.0208 14.9479 13.0208 13.5496V9.97543C13.0208 8.5771 11.8833 7.44043 10.4858 7.44043H4.11833ZM10.4858 17.3346H4.11833C2.03083 17.3346 0.333334 15.6371 0.333334 13.5496V9.97543C0.333334 7.88793 2.03083 6.19043 4.11833 6.19043H10.4858C12.5733 6.19043 14.2708 7.88793 14.2708 9.97543V13.5496C14.2708 15.6371 12.5733 17.3346 10.4858 17.3346Z" fill="white"/>
<path fill-rule="evenodd" clip-rule="evenodd" d="M7.30192 13.3127C6.95692 13.3127 6.67692 13.0327 6.67692 12.6877V10.8369C6.67692 10.4919 6.95692 10.2119 7.30192 10.2119C7.64692 10.2119 7.92692 10.4919 7.92692 10.8369V12.6877C7.92692 13.0327 7.64692 13.3127 7.30192 13.3127Z" fill="white"/>
</svg>
