<svg width="21" height="21" viewBox="0 0 21 21" fill="none" xmlns="http://www.w3.org/2000/svg">
<path fill-rule="evenodd" clip-rule="evenodd" d="M9.3193 20.5H4.4333C1.9893 20.5 0.000299454 18.511 0.000299454 16.065V4.936C0.000299454 2.49 1.9893 0.5 4.4333 0.5H9.3083C11.7543 0.5 13.7443 2.49 13.7443 4.936V5.868C13.7443 6.282 13.4083 6.618 12.9943 6.618C12.5803 6.618 12.2443 6.282 12.2443 5.868V4.936C12.2443 3.316 10.9273 2 9.3083 2H4.4333C2.8163 2 1.5003 3.316 1.5003 4.936V16.065C1.5003 17.684 2.8163 19 4.4333 19H9.3193C10.9313 19 12.2443 17.688 12.2443 16.076V15.133C12.2443 14.719 12.5803 14.383 12.9943 14.383C13.4083 14.383 13.7443 14.719 13.7443 15.133V16.076C13.7443 18.516 11.7583 20.5 9.3193 20.5Z" fill="#F75555"/>
<mask id="mask0_8204_547" style="mask-type:luminance" maskUnits="userSpaceOnUse" x="6" y="9" width="15" height="3">
<path fill-rule="evenodd" clip-rule="evenodd" d="M6.9961 9.75H20.537V11.25H6.9961V9.75Z" fill="white"/>
</mask>
<g mask="url(#mask0_8204_547)">
<path fill-rule="evenodd" clip-rule="evenodd" d="M19.7871 11.25H7.7461C7.3321 11.25 6.9961 10.914 6.9961 10.5C6.9961 10.086 7.3321 9.75 7.7461 9.75H19.7871C20.2011 9.75 20.5371 10.086 20.5371 10.5C20.5371 10.914 20.2011 11.25 19.7871 11.25Z" fill="#F75555"/>
</g>
<mask id="mask1_8204_547" style="mask-type:luminance" maskUnits="userSpaceOnUse" x="16" y="6" width="5" height="9">
<path fill-rule="evenodd" clip-rule="evenodd" d="M16.1096 6.83545H20.537V14.1662H16.1096V6.83545Z" fill="white"/>
</mask>
<g mask="url(#mask1_8204_547)">
<path fill-rule="evenodd" clip-rule="evenodd" d="M16.8594 14.1662C16.6674 14.1662 16.4744 14.0932 16.3284 13.9452C16.0364 13.6512 16.0374 13.1772 16.3304 12.8852L18.7244 10.5002L16.3304 8.1162C16.0374 7.8242 16.0354 7.3502 16.3284 7.0562C16.6204 6.7622 17.0944 6.7622 17.3884 7.0542L20.3164 9.9692C20.4584 10.1092 20.5374 10.3012 20.5374 10.5002C20.5374 10.6992 20.4584 10.8912 20.3164 11.0312L17.3884 13.9472C17.2424 14.0932 17.0504 14.1662 16.8594 14.1662Z" fill="#F75555"/>
</g>
</svg>
