<svg width="26" height="20" viewBox="0 0 26 20" fill="none" xmlns="http://www.w3.org/2000/svg">
<g clip-path="url(#clip0_6267_1806)">
<path d="M25.4876 19.7287V19.7801H25.5361C25.5452 19.7802 25.5542 19.778 25.5621 19.7735C25.5653 19.7713 25.5678 19.7684 25.5695 19.7649C25.5712 19.7615 25.5721 19.7577 25.5719 19.7539C25.572 19.7501 25.5712 19.7464 25.5695 19.743C25.5678 19.7397 25.5653 19.7368 25.5621 19.7347C25.5543 19.7301 25.5453 19.7278 25.5361 19.7282H25.4876V19.7287ZM25.5367 19.6923C25.5574 19.691 25.578 19.697 25.5949 19.709C25.6017 19.7145 25.607 19.7215 25.6106 19.7294C25.6141 19.7373 25.6157 19.7459 25.6153 19.7545C25.6156 19.762 25.6143 19.7694 25.6115 19.7763C25.6087 19.7832 25.6044 19.7894 25.5989 19.7945C25.5859 19.8057 25.5696 19.8124 25.5524 19.8136L25.6174 19.8869H25.5673L25.5075 19.8142H25.4882V19.8869H25.4463V19.6924H25.5373L25.5367 19.6923ZM25.5237 19.954C25.5456 19.9542 25.5674 19.9498 25.5875 19.9412C25.6069 19.9329 25.6245 19.9211 25.6395 19.9063C25.6545 19.8916 25.6664 19.8741 25.6747 19.8549C25.6918 19.8142 25.6918 19.7684 25.6747 19.7277C25.6663 19.7085 25.6544 19.6911 25.6395 19.6762C25.6245 19.6615 25.6069 19.6497 25.5875 19.6414C25.5672 19.6332 25.5455 19.6291 25.5237 19.6293C25.5014 19.6291 25.4793 19.6332 25.4587 19.6414C25.4388 19.6495 25.4208 19.6613 25.4055 19.6762C25.3825 19.6996 25.3669 19.7291 25.3608 19.7611C25.3546 19.7931 25.3581 19.8261 25.3708 19.8562C25.3787 19.8755 25.3905 19.893 25.4055 19.9076C25.4208 19.9225 25.4388 19.9343 25.4587 19.9424C25.4792 19.9511 25.5013 19.9555 25.5237 19.9553M25.5237 19.5825C25.5808 19.5825 25.6357 19.6046 25.6764 19.6442C25.6961 19.6632 25.7117 19.6859 25.7224 19.7109C25.7335 19.7366 25.7393 19.7643 25.7393 19.7922C25.7393 19.8202 25.7335 19.8478 25.7224 19.8735C25.7114 19.8984 25.6958 19.9211 25.6764 19.9403C25.6565 19.9592 25.6333 19.9744 25.6079 19.9852C25.5813 19.9964 25.5526 20.0021 25.5237 20.002C25.4944 20.0022 25.4654 19.9965 25.4384 19.9852C25.4127 19.9746 25.3893 19.9594 25.3693 19.9403C25.3499 19.9204 25.3345 19.897 25.324 19.8714C25.3129 19.8457 25.3071 19.818 25.3071 19.7901C25.3071 19.7621 25.3129 19.7345 25.324 19.7088C25.3347 19.6837 25.3503 19.6611 25.37 19.6421C25.3897 19.6226 25.4132 19.6073 25.439 19.5971C25.466 19.5858 25.495 19.5801 25.5243 19.5804M5.61805 18.8315C5.61805 18.4607 5.86375 18.1561 6.26532 18.1561C6.64908 18.1561 6.90804 18.4476 6.90804 18.8315C6.90804 19.2154 6.64908 19.507 6.26532 19.507C5.86375 19.507 5.61805 19.2023 5.61805 18.8315ZM7.34549 18.8315V17.7762H6.88152V18.0333C6.73436 17.8433 6.51115 17.7242 6.2076 17.7242C5.6096 17.7242 5.1403 18.1879 5.1403 18.832C5.1403 19.4761 5.60934 19.9399 6.2076 19.9399C6.51102 19.9399 6.73436 19.8206 6.88152 19.6307V19.8869H7.34497V18.8315H7.34549ZM23.0225 18.8315C23.0225 18.4607 23.2682 18.1561 23.6699 18.1561C24.054 18.1561 24.3126 18.4476 24.3126 18.8315C24.3126 19.2154 24.054 19.507 23.6699 19.507C23.2683 19.507 23.0225 19.2023 23.0225 18.8315ZM24.7504 18.8315V16.9292H24.2861V18.0333C24.1389 17.8433 23.9157 17.7242 23.6121 17.7242C23.0141 17.7242 22.5448 18.1879 22.5448 18.832C22.5448 19.4761 23.0139 19.9399 23.6121 19.9399C23.9157 19.9399 24.1389 19.8206 24.2861 19.6307V19.8869H24.7504V18.8315ZM13.104 18.1343C13.403 18.1343 13.595 18.3197 13.644 18.646H12.5369C12.5864 18.3414 12.7735 18.1343 13.1041 18.1343M13.1133 17.723C12.488 17.723 12.0506 18.1729 12.0506 18.8309C12.0506 19.5017 12.5056 19.9387 13.1444 19.9387C13.4658 19.9387 13.7601 19.8594 14.019 19.6431L13.7917 19.3031C13.6128 19.4445 13.385 19.5238 13.1709 19.5238C12.8719 19.5238 12.5997 19.3869 12.5328 19.0071H14.1171C14.1216 18.95 14.1263 18.8924 14.1263 18.8307C14.1216 18.173 13.7103 17.7229 13.1131 17.7229M18.7148 18.8307C18.7148 18.4599 18.9605 18.1553 19.362 18.1553C19.7458 18.1553 20.0048 18.4468 20.0048 18.8307C20.0048 19.2147 19.7458 19.5062 19.362 19.5062C18.9605 19.5062 18.7146 19.2016 18.7146 18.8307M20.4421 18.8307V17.7762H19.9784V18.0333C19.8307 17.8433 19.608 17.7242 19.3045 17.7242C18.7065 17.7242 18.2372 18.1879 18.2372 18.832C18.2372 19.4761 18.7062 19.9399 19.3045 19.9399C19.608 19.9399 19.8307 19.8206 19.9784 19.6307V19.8869H20.4422V18.8315L20.4421 18.8307ZM16.0946 18.8307C16.0946 19.4707 16.5452 19.9386 17.2329 19.9386C17.5543 19.9386 17.7684 19.8679 17.9999 19.687L17.7771 19.3162C17.6029 19.44 17.42 19.5062 17.2181 19.5062C16.8477 19.5017 16.5754 19.2369 16.5754 18.8307C16.5754 18.4246 16.8477 18.1599 17.2181 18.1553C17.4195 18.1553 17.6024 18.2215 17.7771 18.3453L17.9999 17.9744C17.768 17.7936 17.5539 17.7229 17.2329 17.7229C16.5452 17.7229 16.0946 18.1906 16.0946 18.8307ZM22.0759 17.7229C21.8083 17.7229 21.6339 17.8467 21.5134 18.032V17.7762H21.0536V19.8858H21.5181V18.7032C21.5181 18.3541 21.6698 18.1602 21.9731 18.1602C22.0724 18.1588 22.171 18.1768 22.2633 18.2133L22.4063 17.7809C22.3036 17.7409 22.1697 17.7233 22.0757 17.7233M9.63934 17.944C9.41613 17.7985 9.10855 17.7233 8.76925 17.7233C8.22871 17.7233 7.8807 17.9795 7.8807 18.3986C7.8807 18.7426 8.13979 18.9548 8.61689 19.021L8.83607 19.0518C9.09048 19.0872 9.2106 19.1534 9.2106 19.2725C9.2106 19.4356 9.0416 19.5287 8.72427 19.5287C8.40291 19.5287 8.17099 19.4271 8.0146 19.308L7.79659 19.6657C8.051 19.8511 8.37236 19.9395 8.72037 19.9395C9.33657 19.9395 9.69368 19.6526 9.69368 19.2509C9.69368 18.8801 9.41262 18.6861 8.94826 18.6199L8.7296 18.5886C8.52875 18.5629 8.36781 18.5229 8.36781 18.3815C8.36781 18.2273 8.51952 18.1345 8.77406 18.1345C9.04641 18.1345 9.31005 18.236 9.43927 18.3153L9.64012 17.9445L9.63934 17.944ZM15.626 17.7237C15.3583 17.7237 15.184 17.8475 15.064 18.0328V17.7762H14.6042V19.8858H15.0681V18.7032C15.0681 18.3541 15.2199 18.1602 15.5231 18.1602C15.6225 18.1588 15.7211 18.1768 15.8133 18.2133L15.9563 17.7809C15.8536 17.7409 15.7197 17.7233 15.6257 17.7233M11.6667 17.7762H10.908V17.1363H10.439V17.7762H10.0062V18.1955H10.439V19.1579C10.439 19.6473 10.6311 19.9388 11.18 19.9388C11.3813 19.9388 11.6133 19.8771 11.7604 19.7757L11.6264 19.3829C11.4879 19.4622 11.3362 19.5022 11.2156 19.5022C10.9837 19.5022 10.908 19.3608 10.908 19.1491V18.1959H11.6667V17.7762ZM4.73002 19.8863V18.5624C4.73002 18.0638 4.40866 17.7283 3.89061 17.7238C3.61826 17.7193 3.33733 17.8031 3.14064 18.0991C2.99348 17.8652 2.76156 17.7238 2.43552 17.7238C2.20763 17.7238 1.98494 17.79 1.81061 18.037V17.7762H1.34625V19.8858H1.81425V18.7161C1.81425 18.3499 2.01965 18.1553 2.33685 18.1553C2.64495 18.1553 2.80082 18.3539 2.80082 18.7115V19.8855H3.26986V18.7158C3.26986 18.3496 3.48397 18.155 3.79194 18.155C4.10875 18.155 4.25994 18.3536 4.25994 18.7112V19.8852L4.73002 19.8863Z" fill="white"/>
<path d="M25.7522 12.869V12.5605H25.671L25.577 12.7722L25.4835 12.5605H25.402V12.869H25.4597V12.6366L25.5476 12.8372H25.6074L25.6953 12.6361V12.869H25.7525H25.7522ZM25.2368 12.869V12.6134H25.3408V12.5613H25.0751V12.6134H25.1791V12.869H25.2363H25.2368Z" fill="#F79410"/>
<path d="M16.5174 14.1923H9.48621V1.69873H16.5175L16.5174 14.1923Z" fill="#FF5F00"/>
<path d="M9.932 7.94564C9.932 5.41132 11.1322 3.15374 13.001 1.69885C11.5864 0.595956 9.83669 -0.00262323 8.03517 8.64199e-06C3.59736 8.64199e-06 0 3.55733 0 7.94564C0 12.3339 3.59736 15.8913 8.03517 15.8913C9.83674 15.8939 11.5865 15.2954 13.0012 14.1924C11.1324 12.7378 9.932 10.4801 9.932 7.94564Z" fill="#EB001B"/>
<path d="M26.0032 7.94564C26.0032 12.3339 22.4059 15.8913 17.9681 15.8913C16.1663 15.8939 14.4164 15.2953 13.0014 14.1924C14.8708 12.7375 16.071 10.4801 16.071 7.94564C16.071 5.41119 14.8708 3.15374 13.0014 1.69885C14.4163 0.595989 16.1662 -0.0025771 17.9679 8.34056e-06C22.4057 8.34056e-06 26.0031 3.55733 26.0031 7.94564" fill="#F79E1B"/>
</g>
<defs>
<clipPath id="clip0_6267_1806">
<rect width="26" height="20" fill="white"/>
</clipPath>
</defs>
</svg>
