<svg width="52" height="52" viewBox="0 0 52 52" fill="none" xmlns="http://www.w3.org/2000/svg">
<path d="M26.1069 0.115845C37.5173 0.115845 46.7739 9.37251 46.7739 20.7828C46.7739 36.5273 26.1069 51.8864 26.1069 51.8864C25.9874 51.7974 5.44092 36.484 5.44092 20.7828C5.44098 9.37267 14.6968 0.116102 26.1069 0.115845Z" fill="#73C54F"/>
<rect x="13.1665" y="9.45268" width="25.6658" height="25.6658" rx="12.8329" stroke="white" stroke-width="1.57137"/>
<g clip-path="url(#clip0_8452_296)">
<path d="M30.1535 18.81L26.7301 19.0955L27.8347 15.3837C27.8629 15.2864 27.8473 15.1793 27.7878 15.0949C27.7283 15.0106 27.6345 14.9619 27.5375 14.9619H23.047C22.8842 14.9619 22.7497 15.0917 22.734 15.2604L22.1238 22.7975C22.1176 22.8916 22.1489 22.989 22.2146 23.0539C22.2803 23.122 22.371 23.1544 22.4649 23.148L25.5034 22.8592L24.9183 29.2121C24.9026 29.3678 24.9996 29.5106 25.1436 29.556C25.1717 29.5657 25.203 29.569 25.2312 29.569C25.347 29.569 25.4565 29.5041 25.5097 29.3905L30.4571 19.2804C30.5071 19.1766 30.5009 19.0501 30.4383 18.9527C30.3757 18.8554 30.2662 18.8002 30.1535 18.81Z" fill="white"/>
</g>
<defs>
<clipPath id="clip0_8452_296">
<rect width="10.4758" height="14.6662" fill="white" transform="translate(20.7617 14.9525)"/>
</clipPath>
</defs>
</svg>
