<svg width="14" height="18" viewBox="0 0 14 18" fill="none" xmlns="http://www.w3.org/2000/svg">
<path fill-rule="evenodd" clip-rule="evenodd" d="M6.90742 9.51518H6.93409C9.37409 9.51518 11.3583 7.53102 11.3583 5.09102C11.3583 2.65102 9.37409 0.666016 6.93409 0.666016C4.49325 0.666016 2.50825 2.65102 2.50825 5.08852C2.49992 7.52185 4.47242 9.50768 6.90742 9.51518ZM3.69825 5.09102C3.69825 3.30685 5.14992 1.85602 6.93409 1.85602C8.71742 1.85602 10.1683 3.30685 10.1683 5.09102C10.1683 6.87435 8.71742 8.32602 6.93409 8.32602H6.90992C5.13326 8.31935 3.69242 6.86935 3.69825 5.09102Z" fill="white"/>
<path fill-rule="evenodd" clip-rule="evenodd" d="M0.333241 14.1438C0.333241 17.2246 5.30157 17.2246 6.93407 17.2246C9.76657 17.2246 13.5332 16.9071 13.5332 14.1605C13.5332 11.0796 8.56657 11.0796 6.93407 11.0796C4.10074 11.0796 0.333241 11.3971 0.333241 14.1438ZM1.58324 14.1438C1.58324 12.9396 3.38324 12.3296 6.93407 12.3296C10.4841 12.3296 12.2832 12.9455 12.2832 14.1605C12.2832 15.3646 10.4841 15.9746 6.93407 15.9746C3.38324 15.9746 1.58324 15.3588 1.58324 14.1438Z" fill="white"/>
</svg>
