<svg width="27" height="23" viewBox="0 0 27 23" fill="none" xmlns="http://www.w3.org/2000/svg">
<path fill-rule="evenodd" clip-rule="evenodd" d="M25.5416 13.2808H1.04163C0.558626 13.2808 0.166626 12.8888 0.166626 12.4058C0.166626 11.9228 0.558626 11.5308 1.04163 11.5308H25.5416C26.0246 11.5308 26.4166 11.9228 26.4166 12.4058C26.4166 12.8888 26.0246 13.2808 25.5416 13.2808Z" fill="white"/>
<path fill-rule="evenodd" clip-rule="evenodd" d="M19.0048 22.3875H17.599C17.116 22.3875 16.724 21.9955 16.724 21.5125C16.724 21.0295 17.116 20.6375 17.599 20.6375H19.0048C20.924 20.6375 22.485 19.0765 22.485 17.1585V12.4043C22.485 11.9213 22.877 11.5293 23.36 11.5293C23.843 11.5293 24.235 11.9213 24.235 12.4043V17.1585C24.235 20.0413 21.8888 22.3875 19.0048 22.3875Z" fill="white"/>
<path fill-rule="evenodd" clip-rule="evenodd" d="M9.02043 22.3875H7.57843C4.69443 22.3875 2.34827 20.0413 2.34827 17.1585V12.4043C2.34827 11.9213 2.74027 11.5293 3.22327 11.5293C3.70627 11.5293 4.09827 11.9213 4.09827 12.4043V17.1585C4.09827 19.0765 5.65927 20.6375 7.57843 20.6375H9.02043C9.50343 20.6375 9.89543 21.0295 9.89543 21.5125C9.89543 21.9955 9.50343 22.3875 9.02043 22.3875Z" fill="white"/>
<path fill-rule="evenodd" clip-rule="evenodd" d="M23.3599 8.36917C22.8769 8.36917 22.4849 7.97717 22.4849 7.49417V5.72783C22.4849 3.811 20.9239 2.25 19.0047 2.25H17.5989C17.1159 2.25 16.7239 1.858 16.7239 1.375C16.7239 0.892 17.1159 0.5 17.5989 0.5H19.0047C21.8887 0.5 24.2349 2.84617 24.2349 5.72783V7.49417C24.2349 7.97717 23.8429 8.36917 23.3599 8.36917Z" fill="white"/>
<path fill-rule="evenodd" clip-rule="evenodd" d="M3.22351 8.36917C2.74051 8.36917 2.34851 7.97717 2.34851 7.49417V5.72783C2.34851 2.84617 4.69468 0.5 7.57868 0.5H9.02068C9.50368 0.5 9.89568 0.892 9.89568 1.375C9.89568 1.858 9.50368 2.25 9.02068 2.25H7.57868C5.65951 2.25 4.09851 3.811 4.09851 5.72783V7.49417C4.09851 7.97717 3.70651 8.36917 3.22351 8.36917Z" fill="white"/>
</svg>
