<svg width="21" height="20" viewBox="0 0 21 20" fill="none" xmlns="http://www.w3.org/2000/svg">
<path fill-rule="evenodd" clip-rule="evenodd" d="M11.9475 1.90711C12.2027 1.99219 12.3749 2.23102 12.3749 2.50004V8.54174H15.4999C15.7366 8.54174 15.953 8.67549 16.0589 8.88724C16.1648 9.09899 16.1419 9.35232 15.9999 9.54174L9.75003 17.8749C9.58861 18.0902 9.30762 18.1779 9.05237 18.0929C8.79715 18.0078 8.62501 17.769 8.62501 17.4999V11.4582H5.50001C5.26327 11.4582 5.04686 11.3245 4.94099 11.1128C4.83512 10.9011 4.85797 10.6477 5 10.4582L11.2499 2.12504C11.4113 1.90983 11.6923 1.82204 11.9475 1.90711Z" fill="#F9C80E"/>
</svg>
