<svg width="19" height="18" viewBox="0 0 19 18" fill="none" xmlns="http://www.w3.org/2000/svg">
<path d="M9.5 2.25C8.16498 2.25 6.85994 2.64588 5.7499 3.38758C4.63987 4.12928 3.77471 5.18349 3.26382 6.41689C2.75292 7.65029 2.61925 9.00749 2.8797 10.3169C3.14015 11.6262 3.78303 12.829 4.72703 13.773C5.67104 14.717 6.87377 15.3598 8.18314 15.6203C9.49252 15.8808 10.8497 15.7471 12.0831 15.2362C13.3165 14.7253 14.3707 13.8601 15.1124 12.7501C15.8541 11.6401 16.25 10.335 16.25 9C16.2476 7.21052 15.5357 5.49501 14.2703 4.22966C13.005 2.9643 11.2895 2.25238 9.5 2.25ZM13.2716 7.14656L9.05282 11.3653C9.00101 11.4179 8.93927 11.4596 8.87119 11.4881C8.80311 11.5166 8.73005 11.5312 8.65625 11.5312C8.58246 11.5312 8.5094 11.5166 8.44132 11.4881C8.37324 11.4596 8.3115 11.4179 8.25969 11.3653L6.29094 9.39656C6.18577 9.29139 6.12668 9.14874 6.12668 9C6.12668 8.85126 6.18577 8.70861 6.29094 8.60344C6.39612 8.49826 6.53876 8.43918 6.6875 8.43918C6.83624 8.43918 6.97889 8.49826 7.08407 8.60344L8.65625 10.1728L12.4784 6.35344C12.5836 6.24826 12.7263 6.18918 12.875 6.18918C13.0237 6.18918 13.1664 6.24826 13.2716 6.35344C13.3767 6.45861 13.4358 6.60126 13.4358 6.75C13.4358 6.89874 13.3767 7.04139 13.2716 7.14656Z" fill="#88C941"/>
<path d="M13.2714 7.14657L9.0526 11.3653C9.00079 11.4179 8.93905 11.4596 8.87098 11.4881C8.8029 11.5166 8.72984 11.5312 8.65604 11.5312C8.58224 11.5312 8.50918 11.5166 8.4411 11.4881C8.37302 11.4596 8.31129 11.4179 8.25948 11.3653L6.29073 9.39656C6.18555 9.29139 6.12646 9.14874 6.12646 9C6.12646 8.85126 6.18555 8.70862 6.29073 8.60344C6.3959 8.49827 6.53855 8.43918 6.68729 8.43918C6.83603 8.43918 6.97868 8.49827 7.08385 8.60344L8.65604 10.1728L12.4782 6.35344C12.5834 6.24827 12.726 6.18918 12.8748 6.18918C13.0235 6.18918 13.1662 6.24827 13.2714 6.35344C13.3765 6.45862 13.4356 6.60126 13.4356 6.75C13.4356 6.89874 13.3765 7.04139 13.2714 7.14657Z" fill="white"/>
</svg>
