<svg width="44" height="44" viewBox="0 0 44 44" fill="none" xmlns="http://www.w3.org/2000/svg">
<rect width="44" height="44" rx="22" fill="white" fill-opacity="0.1"/>
<rect x="0.5" y="0.5" width="43" height="43" rx="21.5" stroke="white" stroke-opacity="0.04"/>
<path d="M23.1749 22L26.7583 18.425C26.9152 18.2681 27.0034 18.0553 27.0034 17.8333C27.0034 17.6114 26.9152 17.3986 26.7583 17.2417C26.6014 17.0847 26.3885 16.9966 26.1666 16.9966C25.9447 16.9966 25.7319 17.0847 25.5749 17.2417L21.9999 20.825L18.4249 17.2417C18.268 17.0847 18.0552 16.9966 17.8333 16.9966C17.6114 16.9966 17.3985 17.0847 17.2416 17.2417C17.0847 17.3986 16.9965 17.6114 16.9965 17.8333C16.9965 18.0553 17.0847 18.2681 17.2416 18.425L20.8249 22L17.2416 25.575C17.1635 25.6525 17.1015 25.7446 17.0592 25.8462C17.0169 25.9477 16.9951 26.0567 16.9951 26.1667C16.9951 26.2767 17.0169 26.3856 17.0592 26.4871C17.1015 26.5887 17.1635 26.6809 17.2416 26.7583C17.3191 26.8364 17.4113 26.8984 17.5128 26.9407C17.6144 26.9831 17.7233 27.0048 17.8333 27.0048C17.9433 27.0048 18.0522 26.9831 18.1538 26.9407C18.2553 26.8984 18.3475 26.8364 18.4249 26.7583L21.9999 23.175L25.5749 26.7583C25.6524 26.8364 25.7446 26.8984 25.8461 26.9407C25.9477 26.9831 26.0566 27.0048 26.1666 27.0048C26.2766 27.0048 26.3855 26.9831 26.4871 26.9407C26.5886 26.8984 26.6808 26.8364 26.7583 26.7583C26.8364 26.6809 26.8984 26.5887 26.9407 26.4871C26.983 26.3856 27.0048 26.2767 27.0048 26.1667C27.0048 26.0567 26.983 25.9477 26.9407 25.8462C26.8984 25.7446 26.8364 25.6525 26.7583 25.575L23.1749 22Z" fill="white"/>
</svg>
