<svg width="25" height="24" viewBox="0 0 25 24" fill="none" xmlns="http://www.w3.org/2000/svg">
<g clip-path="url(#clip0_6192_2000)">
<path d="M17.273 0.0120105C17.222 -0.0449895 15.3845 0.0345106 13.7855 1.77001C12.1865 3.50401 12.4325 5.49301 12.4685 5.54401C12.5045 5.59501 14.7485 5.67451 16.181 3.65701C17.6135 1.63951 17.324 0.0705105 17.273 0.0120105ZM22.244 17.6115C22.172 17.4675 18.7565 15.7605 19.0745 12.4785C19.3925 9.19501 21.587 8.29501 21.6215 8.19751C21.656 8.10001 20.726 7.01251 19.7405 6.46201C19.0169 6.07389 18.2161 5.85152 17.396 5.81101C17.234 5.80651 16.6715 5.66851 15.515 5.98501C14.753 6.19351 13.0355 6.86851 12.563 6.89551C12.089 6.92251 10.679 6.11251 9.1625 5.89801C8.192 5.71051 7.163 6.09451 6.4265 6.39001C5.6915 6.68401 4.2935 7.52101 3.3155 9.74551C2.3375 11.9685 2.849 15.4905 3.215 16.5855C3.581 17.679 4.1525 19.4715 5.1245 20.7795C5.9885 22.2555 7.1345 23.28 7.613 23.628C8.0915 23.976 9.4415 24.207 10.3775 23.7285C11.1305 23.2665 12.4895 23.001 13.0265 23.0205C13.562 23.04 14.618 23.2515 15.6995 23.829C16.556 24.1245 17.366 24.0015 18.1775 23.6715C18.989 23.34 20.1635 22.083 21.5345 19.5345C22.055 18.3495 22.292 17.709 22.244 17.6115Z" fill="white"/>
<path d="M17.273 0.0120105C17.222 -0.0449895 15.3845 0.0345106 13.7855 1.77001C12.1865 3.50401 12.4325 5.49301 12.4685 5.54401C12.5045 5.59501 14.7485 5.67451 16.181 3.65701C17.6135 1.63951 17.324 0.0705105 17.273 0.0120105ZM22.244 17.6115C22.172 17.4675 18.7565 15.7605 19.0745 12.4785C19.3925 9.19501 21.587 8.29501 21.6215 8.19751C21.656 8.10001 20.726 7.01251 19.7405 6.46201C19.0169 6.07389 18.2161 5.85152 17.396 5.81101C17.234 5.80651 16.6715 5.66851 15.515 5.98501C14.753 6.19351 13.0355 6.86851 12.563 6.89551C12.089 6.92251 10.679 6.11251 9.1625 5.89801C8.192 5.71051 7.163 6.09451 6.4265 6.39001C5.6915 6.68401 4.2935 7.52101 3.3155 9.74551C2.3375 11.9685 2.849 15.4905 3.215 16.5855C3.581 17.679 4.1525 19.4715 5.1245 20.7795C5.9885 22.2555 7.1345 23.28 7.613 23.628C8.0915 23.976 9.4415 24.207 10.3775 23.7285C11.1305 23.2665 12.4895 23.001 13.0265 23.0205C13.562 23.04 14.618 23.2515 15.6995 23.829C16.556 24.1245 17.366 24.0015 18.1775 23.6715C18.989 23.34 20.1635 22.083 21.5345 19.5345C22.055 18.3495 22.292 17.709 22.244 17.6115Z" fill="white"/>
</g>
<defs>
<clipPath id="clip0_6192_2000">
<rect width="24" height="24" fill="white" transform="translate(0.5)"/>
</clipPath>
</defs>
</svg>
